<?xml version="1.0" encoding="utf-8"?>

<!DOCTYPE svg PUBLIC "-//W3C//DTD SVG 1.1//EN" "http://www.w3.org/Graphics/SVG/1.1/DTD/svg11.dtd">
<svg version="1.1" id="Layer_1" xmlns="http://www.w3.org/2000/svg" xmlns:xlink="http://www.w3.org/1999/xlink" x="0px" y="0px"
	 viewBox="0 0 2580.052 329.803" enable-background="new 0 0 2580.052 329.803" xml:space="preserve">
<g fill="white">
	<g>
		<path  d="M1291.394,164.901c-28.737-20.167-30.865-38.044-29.422-74.378c1.605-39.513,27.947-62.178,63.314-75.951
			c35.301-13.706,76.419-2.607,94.872,20.057c18.921,23.2,17.45,47.469-1.003,64.384c-12.502,11.366-26.944,0-26.409-10.563
			c0.735-14.575,30.621-11.099,8.424-34.833c-14.976-16.046-45.865-14.241-62.178,4.212c-16.38,18.453-25.272,51.748-3.209,69.666
			c63.849,51.681,141.873-28.014,202.513-27.479c60.707,0.535,93.2,62.78,170.889,60.172
			c141.07-4.814,232.064-130.841,394.529-131.844c77.021-0.535,193.086,107.174,251.052,118.138
			c136.591,25.807,211.472-67.527,215.149-65.454c3.117,1.814-60.085,74.129-161.332,83.873
			c101.246,9.743,164.449,82.059,161.332,83.873c-3.677,2.073-78.558-91.261-215.149-65.454
			c-57.966,10.965-174.031,118.673-251.052,118.138c-162.465-1.003-253.458-127.03-394.529-131.844
			c-77.689-2.608-110.182,59.637-170.889,60.172c-60.64,0.535-138.664-79.16-202.513-27.479
			c-22.063,17.918-13.171,51.213,3.209,69.666c16.313,18.453,47.202,20.258,62.178,4.212c22.197-23.735-7.689-20.258-8.424-34.833
			c-0.535-10.563,13.906-21.929,26.409-10.563c18.453,16.915,19.924,41.184,1.003,64.384
			c-18.453,22.665-59.571,33.763-94.872,20.057c-35.368-13.773-61.71-36.438-63.314-75.951
			C1260.529,202.945,1262.658,185.068,1291.394,164.901z M2363.396,164.901c-4.232-0.404-8.512-0.925-12.841-1.57
			c-65.053-9.694-184.595-109.981-253.191-107.574c-116.129,4.011-188.641,70.923-284.17,109.145
			c95.529,38.222,168.041,105.133,284.17,109.145c68.596,2.407,188.138-97.88,253.191-107.574
			C2354.883,165.826,2359.164,165.305,2363.396,164.901z M1604.025,164.901c-24.399-11.192-46.635-21.988-69.94-22.697
			c-19.688-0.574-44.517,10.894-72.569,22.697c28.051,11.803,52.88,23.271,72.569,22.697
			C1557.39,186.89,1579.625,176.094,1604.025,164.901z"/>
		<path d="M1800.193,164.901c-32.555-19.986-63.487-41.181-84.034-45.095c-88.288-16.673-139.832,37.538-149.525,45.095
			c9.693,7.556,61.237,61.768,149.525,45.095C1736.705,206.082,1767.638,184.888,1800.193,164.901z M1565.21,164.901
			c4.16-8.088,64.66-70.2,153.891-56.929c29.821,4.454,75.981,36.024,117.848,56.929c-41.866,20.904-88.026,52.475-117.848,56.929
			C1629.869,235.101,1569.369,172.99,1565.21,164.901z"/>
		<path d="M2145.855,128.698c-26.585-21.474-70.567,8.259-125.742,36.203c55.175,27.944,99.157,57.677,125.742,36.203
			C2157.018,192.019,2157.018,137.784,2145.855,128.698z M1972.089,164.901c78.554-33.145,149.405-96.099,197.434-67.292
			c27.278,16.38,29.284,28.749,28.147,57.03c-0.139,3.618-0.573,7.034-1.279,10.262c0.705,3.228,1.14,6.644,1.279,10.262
			c1.137,28.281-0.869,40.65-28.147,57.03C2121.494,261,2050.642,198.046,1972.089,164.901z"/>
	</g>
	<g>
		<path d="M1318.079,239.28c-1.605,39.513-27.947,62.178-63.314,75.951c-35.301,13.706-76.419,2.607-94.872-20.057
			c-18.921-23.2-17.45-47.469,1.003-64.384c12.502-11.366,26.944,0,26.409,10.563c-0.735,14.575-30.621,11.099-8.424,34.833
			c14.976,16.046,45.865,14.241,62.178-4.212c16.38-18.453,25.272-51.748,3.209-69.666
			c-63.849-51.681-141.873,28.014-202.513,27.479c-60.707-0.535-93.2-62.78-170.889-60.172
			c-141.07,4.814-232.064,130.841-394.529,131.844c-77.021,0.535-193.086-107.174-251.052-118.138
			C88.694,157.513,13.814,250.846,10.136,248.774c-3.118-1.814,60.085-74.129,161.332-83.873
			C70.222,155.158,7.019,82.843,10.136,81.029c3.677-2.073,78.558,91.261,215.149,65.454
			C283.251,135.518,399.316,27.81,476.337,28.345c162.465,1.003,253.459,127.03,394.529,131.844
			c77.689,2.608,110.182-59.637,170.889-60.172c60.64-0.535,138.663,79.16,202.513,27.479c22.063-17.918,13.171-51.213-3.209-69.666
			c-16.313-18.453-47.202-20.258-62.178-4.212c-22.197,23.735,7.689,20.258,8.424,34.833c0.535,10.563-13.906,21.929-26.409,10.563
			c-18.453-16.915-19.924-41.184-1.003-64.384c18.453-22.665,59.571-33.763,94.872-20.057c35.368,13.773,61.71,36.438,63.314,75.951
			c1.444,36.334-0.685,54.212-29.422,74.378C1317.394,185.068,1319.523,202.945,1318.079,239.28z M229.497,166.472
			c65.053,9.694,184.595,109.981,253.191,107.574c116.129-4.011,188.641-70.923,284.17-109.145
			C671.329,126.68,598.818,59.768,482.688,55.757c-68.596-2.407-188.138,97.88-253.191,107.574
			c-4.328,0.646-8.609,1.167-12.841,1.57C220.888,165.305,225.169,165.826,229.497,166.472z M1045.967,187.599
			c19.688,0.574,44.517-10.894,72.569-22.697c-28.051-11.803-52.88-23.271-72.569-22.697c-23.305,0.709-45.54,11.505-69.94,22.697
			C1000.427,176.094,1022.662,186.89,1045.967,187.599z"/>
		<path d="M863.893,209.996c88.288,16.673,139.832-37.538,149.525-45.095c-9.693-7.556-61.237-61.768-149.525-45.095
			c-20.547,3.914-51.479,25.108-84.034,45.095C812.414,184.888,843.346,206.082,863.893,209.996z M860.952,221.83
			c-29.821-4.454-75.981-36.024-117.847-56.929c41.866-20.904,88.026-52.475,117.847-56.929
			c89.231-13.271,149.731,48.84,153.891,56.929C1010.683,172.99,950.183,235.101,860.952,221.83z"/>
		<path d="M434.197,201.104c26.585,21.474,70.567-8.259,125.742-36.203c-55.175-27.944-99.157-57.677-125.742-36.203
			C423.034,137.784,423.034,192.019,434.197,201.104z M410.529,232.193c-27.278-16.38-29.284-28.749-28.147-57.03
			c0.139-3.618,0.574-7.034,1.279-10.262c-0.705-3.228-1.14-6.644-1.279-10.262c-1.137-28.281,0.869-40.65,28.147-57.03
			c48.029-28.807,118.881,34.146,197.434,67.292C529.41,198.046,458.558,261,410.529,232.193z"/>
	</g>
</g>
</svg>
